<svg width="152" height="44" viewBox="0 0 152 44" fill="none" xmlns="http://www.w3.org/2000/svg">
    <path d="M22.0945 0.941406C16.6347 0.941406 12.1641 5.41205 12.1641 10.8718C12.1641 16.3316 16.6347 20.8023 22.0945 20.8023C24.733 20.8023 27.1368 19.8291 28.9248 18.2618L33.7431 23.0801C30.3421 26.0024 26.2483 27.7337 21.7589 27.7337C12.7533 27.7337 5.23242 20.2128 5.23242 11.2072C5.23242 2.20156 12.7533 -5.31934 21.7589 -5.31934C26.2483 -5.31934 30.3421 -3.58804 33.7431 -0.66572L28.9248 4.1526C27.1368 2.58525 24.733 1.61205 22.0945 1.61205V0.941406Z" fill="#6750A4"/>
    <path d="M21.9268 43.0586C11.7589 43.0586 3.55469 34.8544 3.55469 24.6865C3.55469 14.5186 11.7589 6.31445 21.9268 6.31445C32.1064 6.31445 40.2988 14.5186 40.2988 24.6865C40.2988 34.8544 32.1064 43.0586 21.9268 43.0586ZM21.9268 36.127C28.2737 36.127 33.3672 31.0336 33.3672 24.6865C33.3672 18.3396 28.2737 13.2461 21.9268 13.2461C15.58 13.2461 10.4865 18.3396 10.4865 24.6865C10.4865 31.0336 15.58 36.127 21.9268 36.127Z" fill="#50A483"/>
    <text fill="#1D192B" xml:space="preserve" style="white-space: pre" font-family="PT Sans" font-size="28" font-weight="bold" letter-spacing="0em"><tspan x="50" y="32.3223">ArogyaCare</tspan></text>
</svg>
